<?xml version="1.0" encoding="UTF-8"?>
<!-- Generator: Adobe Illustrator 26.2.0, SVG Export Plug-In . SVG Version: 6.00 Build 0)  -->
<svg version="1.1" id="svg3374" xmlns:cc="http://creativecommons.org/ns#" xmlns:dc="http://purl.org/dc/elements/1.1/" xmlns:rdf="http://www.w3.org/1999/02/22-rdf-syntax-ns#" xmlns:svg="http://www.w3.org/2000/svg" xmlns="http://www.w3.org/2000/svg" xmlns:xlink="http://www.w3.org/1999/xlink" x="0px" y="0px" viewBox="0 0 294.9 77.9" style="enable-background:new 0 0 294.9 77.9;" xml:space="preserve">
<style type="text/css">
	.st0{clip-path:url(#SVGID_00000122679404551183323410000012123601400659505322_);}
	.st1{fill:#0F1C3D;}
</style>
<g id="g3382" transform="matrix(1.25,0,0,-1.25,-40.037875,163.9575)">
	<g id="g3386">
		<g>
			<g>
				<defs>
					<rect id="SVGID_1_" x="-84.4" y="-56.2" width="468.8" height="312.5"/>
				</defs>
				<clipPath id="SVGID_00000005983220894112801400000000561682735550770609_">
					<use xlink:href="#SVGID_1_" style="overflow:visible;"/>
				</clipPath>
				<g id="g3388" style="clip-path:url(#SVGID_00000005983220894112801400000000561682735550770609_);">
					<g id="g3394" transform="translate(118.3184,90.1963)">
						<path id="path3396" class="st1" d="M0,0h-4.5v7.5h4.6c2.8,0,4.2-1.6,4.2-3.8C4.3,1.4,2.7,0,0,0 M-4.5,19.3h3.9        c2.7,0,4.1-1.4,4.1-3.6S2,12.1-0.6,12.1h-4L-4.5,19.3L-4.5,19.3z M4.8,10.1C7.2,10.9,9,13.3,9,16.3C9,20.7,5.8,24,0.3,24H-10        V-4.6H1c5.4,0,8.8,3.3,8.8,8C9.9,6.9,7.6,9.4,4.8,10.1"/>
					</g>
					<g id="g3398" transform="translate(136.6777,97.7402)">
						<path id="path3400" class="st1" d="M0,0c0.1,1.8,1.7,3.9,4.4,3.9C7.5,3.9,8.8,2,8.9,0H0z M4.4,8.3c-5.1,0-9.8-4.1-9.8-10.4        c0-6.7,4.8-10.6,10.2-10.6c4.9,0,8,2.9,9,6.3L9.4-5.2c-0.6-1.8-2-3-4.5-3c-2.7,0-4.9,1.9-5,4.5h14.2c0,0.1,0.1,0.9,0.1,1.7        C14.2,4.4,10.5,8.3,4.4,8.3"/>
					</g>
					<g id="g3402" transform="translate(165.2412,105.9307)">
						<path id="path3404" class="st1" d="M0,0c-2.1,0-4.5-0.9-5.7-3v2.5h-5.2v-19.9h5.4V-9c0,2.3,1.4,4.1,3.7,4.1        c2.6,0,3.7-1.7,3.7-4v-11.6h5.4V-8C7.2-3.5,4.9,0,0,0"/>
					</g>
					<g id="g3406" transform="translate(185.2158,89.873)">
						<path id="path3408" class="st1" d="M0,0c-2.7,0-5.1,2-5.1,5.6s2.3,5.6,5,5.6s3.9-1.7,4.4-3.3l4.8,1.6        c-0.8,3.3-3.9,6.7-9.3,6.7c-5.8,0-10.3-4.4-10.3-10.5C-10.4-0.5-5.9-4.9,0-4.9c5.3,0,8.4,3.4,9.3,6.7L4.6,3.3        C4.1,1.8,2.7,0,0,0"/>
					</g>
					<g id="g3410" transform="translate(208.4131,105.9307)">
						<path id="path3412" class="st1" d="M0,0c-1.9,0-4.1-0.6-5.4-2.2v11h-5.4v-29.2h5.4v11.7c0.1,2.2,1.5,3.9,3.7,3.9        c2.6,0,3.7-1.7,3.7-4v-11.6h5.4v12.5C7.4-3.5,5,0,0,0"/>
					</g>
					<g id="g3414" transform="translate(231.4541,101.4521)">
						<path id="path3416" class="st1" d="M0,0l-4.3,0.9C-6.7,1.5-7.9,3-7.9,5.1c0,2.7,2.3,4.8,5.5,4.8c4,0,5.7-2.8,6.1-4.9l3.5,1.2        C6.5,9.3,4,13.3-2.5,13.3c-5.3,0-9.4-4-9.4-8.5c0-4.3,2.9-6.9,7-7.8l4.1-0.9C2-4.5,3.4-6.3,3.4-8.4c0-2.5-1.9-4.6-5.9-4.6        c-4.3,0-6.6,2.9-6.9,6.1L-13.2-8c0.5-4.1,3.8-8.5,10.7-8.5c6.1,0,9.9,4,9.9,8.5C7.4-4,4.8-1,0,0"/>
					</g>
					<g id="g3418" transform="translate(250.9404,88.4609)">
						<path id="path3420" class="st1" d="M0,0c-3.1,0-5.9,2.4-5.9,6.8c0,4.5,2.8,6.8,5.9,6.8c3.3,0,4.7-2.2,5.2-4.1L8.6,11        c-0.8,2.9-3.5,6.2-8.6,6.2c-5.5,0-9.8-4.2-9.8-10.3c0-6,4.2-10.4,9.8-10.4c5,0,7.8,3.3,8.8,6.1L5.4,4C5,2.5,3.6,0,0,0"/>
					</g>
					<g id="g3422" transform="translate(265.2256,115.0479)">
						<path id="path3424" class="st1" d="M0,0c-1.5,0-2.7-1.2-2.7-2.7S-1.5-5.4,0-5.4s2.7,1.2,2.7,2.7S1.5,0,0,0"/>
					</g>
					<path id="path3426" class="st1" d="M263.4,85.6h3.8V105h-3.8V85.6z"/>
					<g id="g3428" transform="translate(70.9736,108.0166)">
						<path id="path3430" class="st1" d="M0,0c2.1,2.1,3.2,4.8,3.2,7.8h-3.9c0-1.9-0.7-3.7-2.1-5l-5-5L-13,3.1        c-1.2,1.3-1.8,3-1.8,4.7h-3.9c0-2.9,1.1-5.7,3.2-7.8l0,0l5-5l-5-5c-2.1-2.1-3.2-4.8-3.2-7.8v-6.1h4.4v2.9h4.4v-2.9h4.4v2.9        h4.4v-2.9h4.4v6.1C3.2-14.8,2.1-12,0-10l-3.7,3.6l-2.8-2.8l3.7-3.6c1.1-1.1,1.8-2.6,2-4.2h-14c0.2,1.6,0.9,3.1,2,4.2L0,0z"/>
					</g>
					<g id="g3432" transform="translate(63.1963,73.834)">
						<path id="path3434" class="st1" d="M0,0c-14.4,0-26.2,11.7-26.2,26.2S-14.4,52.3,0,52.3s26.2-11.7,26.2-26.2S14.4,0,0,0         M0,57.3c-17.2,0-31.2-14-31.2-31.2S-17.2-5,0-5S31.2,9,31.2,26.2S17.2,57.3,0,57.3"/>
					</g>
				</g>
			</g>
		</g>
	</g>
</g>
</svg>