<svg width="1600" height="432" viewBox="0 0 1600 432" fill="none" xmlns="http://www.w3.org/2000/svg">
<rect width="1600" height="432" fill="url(#paint0_linear)"/>
<g opacity="0.26">
<mask id="mask0" mask-type="alpha" maskUnits="userSpaceOnUse" x="11" y="336" width="11" height="11">
<path d="M16.5095 346.425C19.397 346.425 21.7378 344.091 21.7378 341.212C21.7378 338.334 19.397 336 16.5095 336C13.6219 336 11.2811 338.334 11.2811 341.212C11.2811 344.091 13.6219 346.425 16.5095 346.425Z" fill="url(#paint1_linear)"/>
</mask>
<g mask="url(#mask0)">
<path d="M16.5095 346.425C19.397 346.425 21.7378 344.091 21.7378 341.212C21.7378 338.334 19.397 336 16.5095 336C13.6219 336 11.2811 338.334 11.2811 341.212C11.2811 344.091 13.6219 346.425 16.5095 346.425Z" fill="url(#paint2_linear)"/>
</g>
<mask id="mask1" mask-type="alpha" maskUnits="userSpaceOnUse" x="41" y="336" width="12" height="11">
<path d="M46.7905 346.425C49.6781 346.425 52.0189 344.091 52.0189 341.212C52.0189 338.334 49.6781 336 46.7905 336C43.903 336 41.5621 338.334 41.5621 341.212C41.5621 344.091 43.903 346.425 46.7905 346.425Z" fill="url(#paint3_linear)"/>
</mask>
<g mask="url(#mask1)">
<path d="M46.7905 346.425C49.6781 346.425 52.0189 344.091 52.0189 341.212C52.0189 338.334 49.6781 336 46.7905 336C43.903 336 41.5621 338.334 41.5621 341.212C41.5621 344.091 43.903 346.425 46.7905 346.425Z" fill="url(#paint4_linear)"/>
</g>
<mask id="mask2" mask-type="alpha" maskUnits="userSpaceOnUse" x="71" y="336" width="12" height="11">
<path d="M77.0716 346.425C79.9592 346.425 82.3 344.091 82.3 341.212C82.3 338.334 79.9592 336 77.0716 336C74.184 336 71.8432 338.334 71.8432 341.212C71.8432 344.091 74.184 346.425 77.0716 346.425Z" fill="url(#paint5_linear)"/>
</mask>
<g mask="url(#mask2)">
<path d="M77.0716 346.425C79.9592 346.425 82.3 344.091 82.3 341.212C82.3 338.334 79.9592 336 77.0716 336C74.184 336 71.8432 338.334 71.8432 341.212C71.8432 344.091 74.184 346.425 77.0716 346.425Z" fill="url(#paint6_linear)"/>
</g>
<mask id="mask3" mask-type="alpha" maskUnits="userSpaceOnUse" x="102" y="336" width="11" height="11">
<path d="M107.353 346.425C110.24 346.425 112.581 344.091 112.581 341.212C112.581 338.334 110.24 336 107.353 336C104.465 336 102.124 338.334 102.124 341.212C102.124 344.091 104.465 346.425 107.353 346.425Z" fill="url(#paint7_linear)"/>
</mask>
<g mask="url(#mask3)">
<path d="M107.353 346.425C110.24 346.425 112.581 344.091 112.581 341.212C112.581 338.334 110.24 336 107.353 336C104.465 336 102.124 338.334 102.124 341.212C102.124 344.091 104.465 346.425 107.353 346.425Z" fill="url(#paint8_linear)"/>
</g>
<mask id="mask4" mask-type="alpha" maskUnits="userSpaceOnUse" x="11" y="362" width="11" height="11">
<path d="M16.5095 372.596C19.397 372.596 21.7378 370.262 21.7378 367.383C21.7378 364.505 19.397 362.171 16.5095 362.171C13.6219 362.171 11.2811 364.505 11.2811 367.383C11.2811 370.262 13.6219 372.596 16.5095 372.596Z" fill="url(#paint9_linear)"/>
</mask>
<g mask="url(#mask4)">
<path d="M16.5095 372.596C19.397 372.596 21.7378 370.262 21.7378 367.383C21.7378 364.505 19.397 362.171 16.5095 362.171C13.6219 362.171 11.2811 364.505 11.2811 367.383C11.2811 370.262 13.6219 372.596 16.5095 372.596Z" fill="url(#paint10_linear)"/>
</g>
<mask id="mask5" mask-type="alpha" maskUnits="userSpaceOnUse" x="41" y="362" width="12" height="11">
<path d="M46.7905 372.596C49.6781 372.596 52.0189 370.262 52.0189 367.383C52.0189 364.505 49.6781 362.171 46.7905 362.171C43.903 362.171 41.5621 364.505 41.5621 367.383C41.5621 370.262 43.903 372.596 46.7905 372.596Z" fill="url(#paint11_linear)"/>
</mask>
<g mask="url(#mask5)">
<path d="M46.7905 372.596C49.6781 372.596 52.0189 370.262 52.0189 367.383C52.0189 364.505 49.6781 362.171 46.7905 362.171C43.903 362.171 41.5621 364.505 41.5621 367.383C41.5621 370.262 43.903 372.596 46.7905 372.596Z" fill="url(#paint12_linear)"/>
</g>
<mask id="mask6" mask-type="alpha" maskUnits="userSpaceOnUse" x="71" y="362" width="12" height="11">
<path d="M77.0716 372.596C79.9592 372.596 82.3 370.262 82.3 367.383C82.3 364.505 79.9592 362.171 77.0716 362.171C74.184 362.171 71.8432 364.505 71.8432 367.383C71.8432 370.262 74.184 372.596 77.0716 372.596Z" fill="url(#paint13_linear)"/>
</mask>
<g mask="url(#mask6)">
<path d="M77.0716 372.596C79.9592 372.596 82.3 370.262 82.3 367.383C82.3 364.505 79.9592 362.171 77.0716 362.171C74.184 362.171 71.8432 364.505 71.8432 367.383C71.8432 370.262 74.184 372.596 77.0716 372.596Z" fill="url(#paint14_linear)"/>
</g>
<mask id="mask7" mask-type="alpha" maskUnits="userSpaceOnUse" x="102" y="362" width="11" height="11">
<path d="M107.353 372.596C110.24 372.596 112.581 370.262 112.581 367.383C112.581 364.505 110.24 362.171 107.353 362.171C104.465 362.171 102.124 364.505 102.124 367.383C102.124 370.262 104.465 372.596 107.353 372.596Z" fill="url(#paint15_linear)"/>
</mask>
<g mask="url(#mask7)">
<path d="M107.353 372.596C110.24 372.596 112.581 370.262 112.581 367.383C112.581 364.505 110.24 362.171 107.353 362.171C104.465 362.171 102.124 364.505 102.124 367.383C102.124 370.262 104.465 372.596 107.353 372.596Z" fill="url(#paint16_linear)"/>
</g>
<mask id="mask8" mask-type="alpha" maskUnits="userSpaceOnUse" x="11" y="388" width="11" height="11">
<path d="M16.5095 398.713C19.397 398.713 21.7378 396.379 21.7378 393.5C21.7378 390.621 19.397 388.288 16.5095 388.288C13.6219 388.288 11.2811 390.621 11.2811 393.5C11.2811 396.379 13.6219 398.713 16.5095 398.713Z" fill="url(#paint17_linear)"/>
</mask>
<g mask="url(#mask8)">
<path d="M16.5095 398.713C19.397 398.713 21.7378 396.379 21.7378 393.5C21.7378 390.621 19.397 388.288 16.5095 388.288C13.6219 388.288 11.2811 390.621 11.2811 393.5C11.2811 396.379 13.6219 398.713 16.5095 398.713Z" fill="url(#paint18_linear)"/>
</g>
<mask id="mask9" mask-type="alpha" maskUnits="userSpaceOnUse" x="41" y="388" width="12" height="11">
<path d="M46.7905 398.713C49.6781 398.713 52.0189 396.379 52.0189 393.5C52.0189 390.621 49.6781 388.288 46.7905 388.288C43.903 388.288 41.5621 390.621 41.5621 393.5C41.5621 396.379 43.903 398.713 46.7905 398.713Z" fill="url(#paint19_linear)"/>
</mask>
<g mask="url(#mask9)">
<path d="M46.7905 398.713C49.6781 398.713 52.0189 396.379 52.0189 393.5C52.0189 390.621 49.6781 388.288 46.7905 388.288C43.903 388.288 41.5621 390.621 41.5621 393.5C41.5621 396.379 43.903 398.713 46.7905 398.713Z" fill="url(#paint20_linear)"/>
</g>
<mask id="mask10" mask-type="alpha" maskUnits="userSpaceOnUse" x="71" y="388" width="12" height="11">
<path d="M77.0716 398.713C79.9592 398.713 82.3 396.379 82.3 393.5C82.3 390.621 79.9592 388.288 77.0716 388.288C74.184 388.288 71.8432 390.621 71.8432 393.5C71.8432 396.379 74.184 398.713 77.0716 398.713Z" fill="url(#paint21_linear)"/>
</mask>
<g mask="url(#mask10)">
<path d="M77.0716 398.713C79.9592 398.713 82.3 396.379 82.3 393.5C82.3 390.621 79.9592 388.288 77.0716 388.288C74.184 388.288 71.8432 390.621 71.8432 393.5C71.8432 396.379 74.184 398.713 77.0716 398.713Z" fill="url(#paint22_linear)"/>
</g>
<mask id="mask11" mask-type="alpha" maskUnits="userSpaceOnUse" x="102" y="388" width="11" height="11">
<path d="M107.353 398.713C110.24 398.713 112.581 396.379 112.581 393.5C112.581 390.621 110.24 388.288 107.353 388.288C104.465 388.288 102.124 390.621 102.124 393.5C102.124 396.379 104.465 398.713 107.353 398.713Z" fill="url(#paint23_linear)"/>
</mask>
<g mask="url(#mask11)">
<path d="M107.353 398.713C110.24 398.713 112.581 396.379 112.581 393.5C112.581 390.621 110.24 388.288 107.353 388.288C104.465 388.288 102.124 390.621 102.124 393.5C102.124 396.379 104.465 398.713 107.353 398.713Z" fill="url(#paint24_linear)"/>
</g>
<mask id="mask12" mask-type="alpha" maskUnits="userSpaceOnUse" x="11" y="414" width="11" height="11">
<path d="M16.5095 424.883C19.397 424.883 21.7378 422.55 21.7378 419.671C21.7378 416.792 19.397 414.458 16.5095 414.458C13.6219 414.458 11.2811 416.792 11.2811 419.671C11.2811 422.55 13.6219 424.883 16.5095 424.883Z" fill="url(#paint25_linear)"/>
</mask>
<g mask="url(#mask12)">
<path d="M16.5095 424.883C19.397 424.883 21.7378 422.55 21.7378 419.671C21.7378 416.792 19.397 414.458 16.5095 414.458C13.6219 414.458 11.2811 416.792 11.2811 419.671C11.2811 422.55 13.6219 424.883 16.5095 424.883Z" fill="url(#paint26_linear)"/>
</g>
<mask id="mask13" mask-type="alpha" maskUnits="userSpaceOnUse" x="41" y="414" width="12" height="11">
<path d="M46.7905 424.883C49.6781 424.883 52.0189 422.55 52.0189 419.671C52.0189 416.792 49.6781 414.458 46.7905 414.458C43.903 414.458 41.5621 416.792 41.5621 419.671C41.5621 422.55 43.903 424.883 46.7905 424.883Z" fill="url(#paint27_linear)"/>
</mask>
<g mask="url(#mask13)">
<path d="M46.7905 424.883C49.6781 424.883 52.0189 422.55 52.0189 419.671C52.0189 416.792 49.6781 414.458 46.7905 414.458C43.903 414.458 41.5621 416.792 41.5621 419.671C41.5621 422.55 43.903 424.883 46.7905 424.883Z" fill="url(#paint28_linear)"/>
</g>
<mask id="mask14" mask-type="alpha" maskUnits="userSpaceOnUse" x="71" y="414" width="12" height="11">
<path d="M77.0716 424.883C79.9592 424.883 82.3 422.55 82.3 419.671C82.3 416.792 79.9592 414.458 77.0716 414.458C74.184 414.458 71.8432 416.792 71.8432 419.671C71.8432 422.55 74.184 424.883 77.0716 424.883Z" fill="url(#paint29_linear)"/>
</mask>
<g mask="url(#mask14)">
<path d="M77.0716 424.883C79.9592 424.883 82.3 422.55 82.3 419.671C82.3 416.792 79.9592 414.458 77.0716 414.458C74.184 414.458 71.8432 416.792 71.8432 419.671C71.8432 422.55 74.184 424.883 77.0716 424.883Z" fill="url(#paint30_linear)"/>
</g>
<mask id="mask15" mask-type="alpha" maskUnits="userSpaceOnUse" x="102" y="414" width="11" height="11">
<path d="M107.353 424.883C110.24 424.883 112.581 422.55 112.581 419.671C112.581 416.792 110.24 414.458 107.353 414.458C104.465 414.458 102.124 416.792 102.124 419.671C102.124 422.55 104.465 424.883 107.353 424.883Z" fill="url(#paint31_linear)"/>
</mask>
<g mask="url(#mask15)">
<path d="M107.353 424.883C110.24 424.883 112.581 422.55 112.581 419.671C112.581 416.792 110.24 414.458 107.353 414.458C104.465 414.458 102.124 416.792 102.124 419.671C102.124 422.55 104.465 424.883 107.353 424.883Z" fill="url(#paint32_linear)"/>
</g>
</g>
<defs>
<linearGradient id="paint0_linear" x1="1429" y1="-42" x2="1422.26" y2="376.89" gradientUnits="userSpaceOnUse">
<stop stop-color="#67C3F3"/>
<stop offset="1" stop-color="#5A98F2"/>
</linearGradient>
<linearGradient id="paint1_linear" x1="66.2771" y1="467.134" x2="-5.12449" y2="285.33" gradientUnits="userSpaceOnUse">
<stop stop-color="white"/>
<stop offset="1" stop-color="white"/>
</linearGradient>
<linearGradient id="paint2_linear" x1="66.2771" y1="467.134" x2="-5.12449" y2="285.33" gradientUnits="userSpaceOnUse">
<stop stop-color="white"/>
<stop offset="1" stop-color="white"/>
</linearGradient>
<linearGradient id="paint3_linear" x1="96.5582" y1="467.134" x2="25.1566" y2="285.33" gradientUnits="userSpaceOnUse">
<stop stop-color="white"/>
<stop offset="1" stop-color="white"/>
</linearGradient>
<linearGradient id="paint4_linear" x1="96.5582" y1="467.134" x2="25.1566" y2="285.33" gradientUnits="userSpaceOnUse">
<stop stop-color="white"/>
<stop offset="1" stop-color="white"/>
</linearGradient>
<linearGradient id="paint5_linear" x1="126.839" y1="467.134" x2="55.4376" y2="285.33" gradientUnits="userSpaceOnUse">
<stop stop-color="white"/>
<stop offset="1" stop-color="white"/>
</linearGradient>
<linearGradient id="paint6_linear" x1="126.839" y1="467.134" x2="55.4376" y2="285.33" gradientUnits="userSpaceOnUse">
<stop stop-color="white"/>
<stop offset="1" stop-color="white"/>
</linearGradient>
<linearGradient id="paint7_linear" x1="157.12" y1="467.134" x2="85.7187" y2="285.33" gradientUnits="userSpaceOnUse">
<stop stop-color="white"/>
<stop offset="1" stop-color="white"/>
</linearGradient>
<linearGradient id="paint8_linear" x1="157.12" y1="467.134" x2="85.7187" y2="285.33" gradientUnits="userSpaceOnUse">
<stop stop-color="white"/>
<stop offset="1" stop-color="white"/>
</linearGradient>
<linearGradient id="paint9_linear" x1="66.2771" y1="493.303" x2="-5.12327" y2="311.501" gradientUnits="userSpaceOnUse">
<stop stop-color="white"/>
<stop offset="1" stop-color="white"/>
</linearGradient>
<linearGradient id="paint10_linear" x1="66.2771" y1="493.303" x2="-5.12327" y2="311.501" gradientUnits="userSpaceOnUse">
<stop stop-color="white"/>
<stop offset="1" stop-color="white"/>
</linearGradient>
<linearGradient id="paint11_linear" x1="96.5582" y1="493.303" x2="25.1578" y2="311.501" gradientUnits="userSpaceOnUse">
<stop stop-color="white"/>
<stop offset="1" stop-color="white"/>
</linearGradient>
<linearGradient id="paint12_linear" x1="96.5582" y1="493.303" x2="25.1578" y2="311.501" gradientUnits="userSpaceOnUse">
<stop stop-color="white"/>
<stop offset="1" stop-color="white"/>
</linearGradient>
<linearGradient id="paint13_linear" x1="126.839" y1="493.303" x2="55.4389" y2="311.501" gradientUnits="userSpaceOnUse">
<stop stop-color="white"/>
<stop offset="1" stop-color="white"/>
</linearGradient>
<linearGradient id="paint14_linear" x1="126.839" y1="493.303" x2="55.4389" y2="311.501" gradientUnits="userSpaceOnUse">
<stop stop-color="white"/>
<stop offset="1" stop-color="white"/>
</linearGradient>
<linearGradient id="paint15_linear" x1="157.12" y1="493.303" x2="85.7199" y2="311.501" gradientUnits="userSpaceOnUse">
<stop stop-color="white"/>
<stop offset="1" stop-color="white"/>
</linearGradient>
<linearGradient id="paint16_linear" x1="157.12" y1="493.303" x2="85.7199" y2="311.501" gradientUnits="userSpaceOnUse">
<stop stop-color="white"/>
<stop offset="1" stop-color="white"/>
</linearGradient>
<linearGradient id="paint17_linear" x1="66.2771" y1="519.421" x2="-5.12449" y2="337.618" gradientUnits="userSpaceOnUse">
<stop stop-color="white"/>
<stop offset="1" stop-color="white"/>
</linearGradient>
<linearGradient id="paint18_linear" x1="66.2771" y1="519.421" x2="-5.12449" y2="337.618" gradientUnits="userSpaceOnUse">
<stop stop-color="white"/>
<stop offset="1" stop-color="white"/>
</linearGradient>
<linearGradient id="paint19_linear" x1="96.5582" y1="519.421" x2="25.1566" y2="337.618" gradientUnits="userSpaceOnUse">
<stop stop-color="white"/>
<stop offset="1" stop-color="white"/>
</linearGradient>
<linearGradient id="paint20_linear" x1="96.5582" y1="519.421" x2="25.1566" y2="337.618" gradientUnits="userSpaceOnUse">
<stop stop-color="white"/>
<stop offset="1" stop-color="white"/>
</linearGradient>
<linearGradient id="paint21_linear" x1="126.839" y1="519.421" x2="55.4376" y2="337.618" gradientUnits="userSpaceOnUse">
<stop stop-color="white"/>
<stop offset="1" stop-color="white"/>
</linearGradient>
<linearGradient id="paint22_linear" x1="126.839" y1="519.421" x2="55.4376" y2="337.618" gradientUnits="userSpaceOnUse">
<stop stop-color="white"/>
<stop offset="1" stop-color="white"/>
</linearGradient>
<linearGradient id="paint23_linear" x1="157.12" y1="519.421" x2="85.7187" y2="337.618" gradientUnits="userSpaceOnUse">
<stop stop-color="white"/>
<stop offset="1" stop-color="white"/>
</linearGradient>
<linearGradient id="paint24_linear" x1="157.12" y1="519.421" x2="85.7187" y2="337.618" gradientUnits="userSpaceOnUse">
<stop stop-color="white"/>
<stop offset="1" stop-color="white"/>
</linearGradient>
<linearGradient id="paint25_linear" x1="66.2771" y1="545.592" x2="-5.12449" y2="363.788" gradientUnits="userSpaceOnUse">
<stop stop-color="white"/>
<stop offset="1" stop-color="white"/>
</linearGradient>
<linearGradient id="paint26_linear" x1="66.2771" y1="545.592" x2="-5.12449" y2="363.788" gradientUnits="userSpaceOnUse">
<stop stop-color="white"/>
<stop offset="1" stop-color="white"/>
</linearGradient>
<linearGradient id="paint27_linear" x1="96.5582" y1="545.592" x2="25.1566" y2="363.788" gradientUnits="userSpaceOnUse">
<stop stop-color="white"/>
<stop offset="1" stop-color="white"/>
</linearGradient>
<linearGradient id="paint28_linear" x1="96.5582" y1="545.592" x2="25.1566" y2="363.788" gradientUnits="userSpaceOnUse">
<stop stop-color="white"/>
<stop offset="1" stop-color="white"/>
</linearGradient>
<linearGradient id="paint29_linear" x1="126.839" y1="545.592" x2="55.4376" y2="363.788" gradientUnits="userSpaceOnUse">
<stop stop-color="white"/>
<stop offset="1" stop-color="white"/>
</linearGradient>
<linearGradient id="paint30_linear" x1="126.839" y1="545.592" x2="55.4376" y2="363.788" gradientUnits="userSpaceOnUse">
<stop stop-color="white"/>
<stop offset="1" stop-color="white"/>
</linearGradient>
<linearGradient id="paint31_linear" x1="157.12" y1="545.592" x2="85.7187" y2="363.788" gradientUnits="userSpaceOnUse">
<stop stop-color="white"/>
<stop offset="1" stop-color="white"/>
</linearGradient>
<linearGradient id="paint32_linear" x1="157.12" y1="545.592" x2="85.7187" y2="363.788" gradientUnits="userSpaceOnUse">
<stop stop-color="white"/>
<stop offset="1" stop-color="white"/>
</linearGradient>
</defs>
</svg>
