<?xml version="1.0" standalone="no"?>
<!DOCTYPE svg PUBLIC "-//W3C//DTD SVG 20010904//EN"
 "http://www.w3.org/TR/2001/REC-SVG-20010904/DTD/svg10.dtd">
<svg version="1.0" xmlns="http://www.w3.org/2000/svg"
 width="840.000000pt" height="485.000000pt" viewBox="0 0 840.000000 485.000000"
 preserveAspectRatio="xMidYMid meet">

<g transform="translate(0.000000,485.000000) scale(0.100000,-0.100000)"
fill="#000000" stroke="none">
<path d="M1884 3251 c-102 -26 -202 -109 -251 -208 l-28 -58 0 -560 0 -560 29
-60 c38 -76 105 -143 181 -181 55 -26 69 -29 165 -29 93 0 112 3 162 27 113
53 195 158 218 277 13 69 13 981 0 1049 -22 118 -100 221 -205 273 -55 27 -78
32 -152 35 -49 2 -102 0 -119 -5z m168 -300 l33 -29 0 -497 0 -497 -33 -29
c-45 -41 -102 -41 -143 0 l-29 29 0 487 c0 516 1 527 47 554 36 21 91 13 125
-18z"/>
<path d="M660 2425 l0 -815 140 0 140 0 0 350 0 350 125 0 125 0 0 140 0 140
-125 0 -125 0 0 185 0 185 195 0 195 0 0 140 0 140 -335 0 -335 0 0 -815z"/>
<path d="M2720 2425 l0 -815 140 0 140 0 0 675 0 675 71 0 c67 0 73 -2 105
-34 l34 -34 0 -174 c0 -146 -3 -179 -19 -213 -21 -47 -66 -88 -116 -106 -19
-7 -35 -17 -35 -21 0 -4 36 -144 81 -310 44 -167 89 -338 101 -380 l20 -78
144 0 c79 0 144 3 144 8 0 4 -11 41 -24 82 -13 41 -54 182 -91 312 l-69 237
37 40 c92 102 110 183 105 466 -5 242 -11 267 -95 356 -104 112 -159 127 -449
129 l-224 1 0 -816z"/>
<path d="M3790 3100 l0 -140 120 0 120 0 0 -675 0 -675 140 0 140 0 0 675 0
675 125 0 125 0 0 140 0 140 -385 0 -385 0 0 -140z"/>
<path d="M4870 2583 c0 -709 1 -716 53 -806 34 -57 116 -133 174 -160 40 -18
66 -21 158 -22 100 0 115 2 166 28 70 34 152 119 187 194 l27 58 3 683 3 682
-141 0 -140 0 0 -646 c0 -455 -3 -652 -11 -667 -19 -37 -52 -57 -94 -56 -43 0
-61 10 -88 49 -16 22 -17 78 -17 672 l0 648 -140 0 -140 0 0 -657z"/>
<path d="M5990 2425 l0 -816 135 3 136 3 -1 385 c0 237 3 381 9 375 5 -6 19
-44 31 -85 17 -59 136 -442 201 -647 l11 -33 154 0 154 0 0 815 0 815 -140 0
-140 0 -2 -427 -3 -427 -119 380 c-66 208 -126 400 -133 427 l-15 47 -139 0
-139 0 0 -815z"/>
<path d="M7180 2425 l0 -815 340 0 340 0 0 140 0 140 -200 0 -200 0 0 210 0
210 125 0 125 0 0 140 0 140 -125 0 -125 0 0 185 0 185 200 0 200 0 0 140 0
140 -340 0 -340 0 0 -815z"/>
</g>
</svg>
