<svg version="1.1" id="layer" xmlns="http://www.w3.org/2000/svg" xmlns:xlink="http://www.w3.org/1999/xlink" x="0px" y="0px" style="enable-background:new 0 0 652 652;" xml:space="preserve" viewBox="20.7 239 600.1 165.4">
<g id="Page-1">
	<g id="logo-science" transform="translate(-1.000000, 0.000000)">
		<path id="Shape" d="M37.1,391.8l-6.8,10.7H23l-1.3-53.3h5.1c8.9,24.3,22.1,47.4,48.5,47.4c18.7,0,28.1-11.5,28.1-28.6    c0-14.1-6.8-24.3-20.8-30.3c-11.9-5.1-20-8.1-31.9-13.7c-15.7-7.3-25.1-20.1-25.1-40.1c0-24.3,18.7-42.2,43.8-42.2    c10.6,0,24.2,4.7,31.9,11.1l6.4-10.2h7.7l1.3,52h-5.1c-8.5-26-18.7-45.6-46.4-45.6c-6,0-21.3,5.5-21.3,23.5    c0,14.1,6,21.8,18.7,29.4c10.2,6,20.8,9,30.2,13.7c17,8.5,29.8,17.9,29.8,41.4c0,27.7-20.8,47.4-48.9,47.4    C55.8,402.8,43.4,397.3,37.1,391.8"/>
		<path id="Shape_1_" d="M127.6,347.8c0-28.2,17.9-54.2,46.4-54.2c21.3,0,31.9,12.4,31.9,26.5c0,7.7-4.3,12.8-11.5,12.8    c-4.3,0-12.3-2.6-12.3-11.5c0-9.4,2.6-9.8,2.6-14.1c-1.3-6.8-4.3-8.1-11.1-8.1c-12.3,0-23.8,11.9-23.8,46.5    c0,27.7,9.8,46.9,27.6,46.9c14,0,22.5-7.3,28.9-20.5l4.7,3.4c-7.7,14.9-22.1,27.3-38.3,27.3C142.5,402.8,127.6,379.4,127.6,347.8"/>
		<path id="Shape_2_" d="M223.3,253.5c0-7.7,6-14.5,13.6-14.5c8.5,0,14,6,14,13.7c0,8.1-6,14.9-14,14.9    C229.3,267.6,223.3,261.2,223.3,253.5L223.3,253.5z M213.5,395.2c3.4-0.4,6.4-0.9,9.4-1.7c3.8-1.3,5.5-5.5,5.5-10.2v-65.7    c-0.4-4.7-2.1-9-5.5-11.5c-2.6-1.7-8.9-4.3-12.3-4.3v-4.3l37-2.6l1.3,1.7v85.3c0,4.7,2.1,8.5,5.5,10.7c3,1.7,6.8,2.6,9.4,2.6v4.7    H214v-4.7H213.5z"/>
		<path id="Shape_3_" d="M323.7,334.2c0-16.6-3-35-17.4-35c-12.3,0-21.3,14.1-21.7,35.8L323.7,334.2L323.7,334.2z M262.4,347.4    c0-27.3,16.2-53.8,43.8-53.8c28.5,0,39.1,20.5,39.1,43.9v2.1h-60.8v2.6c0,29.4,8.5,50.3,29.8,50.3c15.3,0,20.8-6.4,28.5-20.5    l4.3,2.6c-7.2,16.2-21.3,27.7-38.3,27.7C277.3,402.8,262.4,377.7,262.4,347.4L262.4,347.4z"/>
		<path id="Shape_4_" d="M346.6,395.2c3.4-0.4,6.4-0.9,9.4-1.7c3.8-1.3,5.5-5.1,5.5-10.2v-65.7c-0.4-4.7-2.1-9.4-5.5-11.9    c-2.1-1.7-6.8-3.4-10.2-3.8v-4.3l34.4-2.6l1.7,1.7V312h0.4c8.1-8.5,15.7-18.8,32.7-18.8c18.7,0,27.6,14.5,27.6,36.3v52.9    c0,5.1,1.7,8.5,5.1,10.2c3,1.3,5.5,2.1,9.4,2.6v4.7H407v-4.7c3.4-0.4,6.8-0.9,9.4-1.7c3.8-1.3,5.5-5.1,5.5-10.2V329    c0-15.8-7.7-24.3-16.2-24.3c-14,0-22.1,9.4-24.2,14.9v62.3c0,5.1,1.7,8.5,5.1,10.2c2.6,1.7,6.4,2.6,9.4,2.6v4.7h-49.8v-4.3H346.6z    "/>
		<path id="Shape_5_" d="M453.4,347.8c0-28.2,17.9-54.2,46.4-54.2c21.3,0,31.9,12.4,31.9,26.5c0,7.7-4.3,12.8-11.5,12.8    c-4.3,0-12.3-2.6-12.3-11.5c0-9.4,2.6-9.8,2.6-14.1c-1.3-6.8-4.3-8.1-11.1-8.1c-12.3,0-23.8,11.9-23.8,46.5    c0,27.7,9.8,46.9,27.6,46.9c14,0,22.5-7.3,28.9-20.5l4.7,3.4c-7.7,14.9-22.1,27.3-38.3,27.3C468.2,402.8,453.4,379.4,453.4,347.8"/>
		<path id="Shape_6_" d="M598.4,334.2c0-16.6-3-35-17.4-35c-12.3,0-21.3,14.1-21.7,35.8L598.4,334.2L598.4,334.2z M537.1,347.4    c0-27.3,16.2-53.8,43.8-53.8c28.5,0,39.1,20.5,39.1,43.9v2.1h-60.8v2.6c0,29.4,8.5,50.3,29.8,50.3c15.3,0,20.8-6.4,28.5-20.5    l4.3,2.6c-7.2,16.2-21.3,27.7-38.3,27.7C551.6,402.8,537.1,377.7,537.1,347.4L537.1,347.4z"/>
	</g>
</g>
</svg>