<?xml version="1.0" encoding="UTF-8"?>
<svg xmlns="http://www.w3.org/2000/svg" xmlns:xlink="http://www.w3.org/1999/xlink" width="284px" height="78px" viewBox="0 0 283 78" version="1.1">
<g id="surface1">
<path style=" stroke:none;fill-rule:nonzero;fill:rgb(0%,0%,0%);fill-opacity:1;" d="M 7.234375 72.15625 L 4.019531 77.195312 L 0.601562 77.195312 L 0 52 L 2.410156 52 C 6.632812 63.492188 12.863281 74.375 25.324219 74.375 C 34.167969 74.375 38.589844 68.933594 38.589844 60.871094 C 38.589844 54.21875 35.375 49.382812 28.742188 46.558594 C 23.113281 44.140625 19.292969 42.730469 13.667969 40.109375 C 6.230469 36.683594 1.808594 30.636719 1.808594 21.164062 C 1.808594 9.675781 10.652344 1.210938 22.511719 1.210938 C 27.535156 1.210938 33.96875 3.429688 37.585938 6.453125 L 40.601562 1.613281 L 44.21875 1.613281 L 44.820312 26.203125 L 42.410156 26.203125 C 38.390625 13.910156 33.566406 4.636719 20.5 4.636719 C 17.6875 4.636719 10.453125 7.257812 10.453125 15.722656 C 10.453125 22.375 13.265625 26 19.296875 29.628906 C 24.117188 32.449219 29.144531 33.863281 33.566406 36.078125 C 41.605469 40.109375 47.636719 44.542969 47.636719 55.628906 C 47.636719 68.730469 37.785156 78.003906 24.519531 78.003906 C 16.078125 77.398438 10.25 74.777344 7.234375 72.15625 Z M 50.046875 51.398438 C 50.046875 38.09375 58.488281 25.800781 71.953125 25.800781 C 82.003906 25.800781 87.027344 31.644531 87.027344 38.296875 C 87.027344 41.925781 85.019531 44.34375 81.601562 44.34375 C 79.589844 44.34375 75.773438 43.132812 75.773438 38.902344 C 75.773438 34.46875 76.980469 34.265625 76.980469 32.25 C 76.375 29.023438 74.96875 28.421875 71.753906 28.421875 C 65.925781 28.421875 60.496094 34.0625 60.496094 50.390625 C 60.496094 63.488281 65.121094 72.558594 73.5625 72.558594 C 80.195312 72.558594 84.214844 69.132812 87.230469 62.886719 L 89.441406 64.496094 C 85.820312 71.550781 78.988281 77.398438 71.351562 77.398438 C 57.082031 77.398438 50.046875 66.3125 50.046875 51.398438 Z M 95.269531 6.855469 C 95.269531 3.226562 98.082031 0.00390625 101.699219 0.00390625 C 105.71875 0.00390625 108.332031 2.824219 108.332031 6.453125 C 108.332031 10.28125 105.519531 13.503906 101.699219 13.503906 C 98.082031 13.503906 95.269531 10.484375 95.269531 6.855469 Z M 90.644531 73.769531 C 92.253906 73.566406 93.660156 73.367188 95.066406 72.964844 C 96.875 72.359375 97.679688 70.34375 97.679688 68.125 L 97.679688 37.085938 C 97.480469 34.871094 96.675781 32.855469 95.066406 31.644531 C 93.863281 30.839844 90.847656 29.628906 89.238281 29.628906 L 89.238281 27.613281 L 106.722656 26.40625 L 107.328125 27.210938 L 107.328125 67.523438 C 107.328125 69.738281 108.332031 71.550781 109.941406 72.558594 C 111.347656 73.367188 113.15625 73.769531 114.363281 73.769531 L 114.363281 75.988281 L 90.847656 75.988281 L 90.847656 73.769531 Z M 142.703125 44.949219 C 142.703125 37.085938 141.292969 28.421875 134.460938 28.421875 C 128.632812 28.421875 124.410156 35.070312 124.210938 45.351562 Z M 113.757812 51.195312 C 113.757812 38.296875 121.398438 25.800781 134.460938 25.800781 C 147.925781 25.800781 152.953125 35.476562 152.953125 46.5625 L 152.953125 47.570312 L 124.210938 47.570312 L 124.210938 48.777344 C 124.210938 62.683594 128.230469 72.5625 138.28125 72.5625 C 145.515625 72.5625 148.128906 69.539062 151.746094 62.886719 L 153.753906 64.09375 C 150.339844 71.753906 143.707031 77.195312 135.667969 77.195312 C 120.792969 77.398438 113.757812 65.507812 113.757812 51.195312 Z M 154.152344 73.296875 C 155.746094 73.097656 157.140625 72.898438 158.535156 72.5 C 160.328125 71.902344 161.125 70.105469 161.125 67.714844 L 161.125 37 C 160.925781 34.804688 160.128906 32.609375 158.535156 31.414062 C 157.539062 30.617188 155.347656 29.820312 153.753906 29.621094 L 153.753906 27.625 L 169.886719 26.429688 L 170.683594 27.226562 L 170.683594 34.40625 L 170.882812 34.40625 C 174.667969 30.417969 178.25 25.628906 186.214844 25.628906 C 194.980469 25.628906 199.160156 32.410156 199.160156 42.582031 L 199.160156 67.3125 C 199.160156 69.707031 199.957031 71.304688 201.550781 72.101562 C 202.945312 72.699219 204.140625 73.097656 205.933594 73.296875 L 205.933594 75.492188 L 182.433594 75.492188 L 182.433594 73.296875 C 184.027344 73.097656 185.617188 72.898438 186.8125 72.5 C 188.605469 71.902344 189.402344 70.105469 189.402344 67.714844 L 189.402344 42.382812 C 189.402344 35.003906 185.820312 31.015625 181.835938 31.015625 C 175.265625 31.015625 171.480469 35.402344 170.484375 37.996094 L 170.484375 67.113281 C 170.484375 69.507812 171.28125 71.105469 172.875 71.902344 C 174.070312 72.699219 175.863281 73.097656 177.253906 73.097656 L 177.253906 75.292969 L 153.957031 75.292969 L 153.957031 73.296875 L 154.15625 73.296875 Z M 204.140625 51.160156 C 204.140625 37.996094 212.503906 25.832031 225.84375 25.832031 C 235.804688 25.832031 240.78125 31.613281 240.78125 38.195312 C 240.78125 41.785156 238.789062 44.179688 235.40625 44.179688 C 233.414062 44.179688 229.628906 42.984375 229.628906 38.792969 C 229.628906 34.40625 230.824219 34.207031 230.824219 32.214844 C 230.226562 29.023438 228.832031 28.421875 225.648438 28.421875 C 219.871094 28.421875 214.496094 34.007812 214.496094 50.164062 C 214.496094 63.125 219.074219 72.101562 227.4375 72.101562 C 234.011719 72.101562 237.996094 68.710938 240.980469 62.527344 L 243.171875 64.125 C 239.585938 71.105469 232.816406 76.886719 225.25 76.886719 C 211.109375 76.886719 204.140625 65.917969 204.140625 51.160156 Z M 272.046875 44.777344 C 272.046875 37 270.652344 28.421875 263.882812 28.421875 C 258.105469 28.421875 253.925781 35.003906 253.726562 45.175781 Z M 243.371094 50.960938 C 243.371094 38.195312 250.9375 25.832031 263.882812 25.832031 C 277.222656 25.832031 282.203125 35.402344 282.203125 46.375 L 282.203125 47.371094 L 253.726562 47.371094 L 253.726562 48.566406 C 253.726562 62.328125 257.707031 72.101562 267.664062 72.101562 C 274.832031 72.101562 277.421875 69.109375 281.007812 62.527344 L 283 63.726562 C 279.613281 71.304688 273.042969 76.691406 265.074219 76.691406 C 250.140625 76.890625 243.367188 65.121094 243.367188 50.960938 Z M 243.371094 50.960938 "/>
</g>
</svg>
