<?xml version="1.0" standalone="no"?>
<!DOCTYPE svg PUBLIC "-//W3C//DTD SVG 20010904//EN"
 "http://www.w3.org/TR/2001/REC-SVG-20010904/DTD/svg10.dtd">
<svg version="1.0" xmlns="http://www.w3.org/2000/svg"
 width="302.000000pt" height="167.000000pt" viewBox="0 0 302.000000 167.000000"
 preserveAspectRatio="xMidYMid meet">

<g transform="translate(0.000000,167.000000) scale(0.100000,-0.100000)"
fill="#000000" stroke="none">
<path d="M0 835 l0 -835 1510 0 1510 0 0 835 0 835 -1510 0 -1510 0 0 -835z
m498 688 c4 -39 -14 -44 -28 -8 -7 19 -17 25 -40 25 -51 0 -39 -34 23 -67 41
-22 53 -34 55 -56 5 -46 -22 -67 -84 -67 -49 0 -54 2 -60 25 -11 42 11 45 28
4 7 -16 47 -19 62 -4 22 22 13 36 -42 65 -39 21 -48 30 -50 57 -4 43 27 65 88
61 43 -3 45 -5 48 -35z m230 20 c5 -17 -26 -29 -40 -15 -6 6 -7 15 -3 22 9 14
37 9 43 -7z m-80 -41 c7 -5 10 -16 6 -25 -8 -21 -20 -22 -28 -2 -7 20 -42 19
-50 -1 -21 -54 5 -89 56 -79 31 6 32 5 14 -10 -25 -19 -75 -19 -104 1 -22 15
-30 66 -14 90 20 29 90 44 120 26z m82 -46 c0 -30 3 -61 6 -70 5 -13 -1 -16
-28 -16 l-33 0 0 63 c0 45 4 64 15 69 34 15 40 9 40 -46z m139 28 c30 -38 27
-44 -25 -44 -41 0 -45 -2 -42 -22 3 -20 8 -23 48 -21 41 2 43 1 26 -13 -47
-35 -136 2 -136 56 0 12 11 32 25 45 33 34 77 33 104 -1z m81 16 c0 -7 7 -7
21 0 31 17 68 4 75 -26 l6 -25 12 22 c14 28 57 43 101 35 27 -5 32 -10 28 -26
-6 -24 -19 -26 -27 -4 -3 9 -15 14 -28 12 -19 -2 -24 -10 -26 -45 -3 -46 14
-59 60 -48 20 5 24 13 24 41 0 42 19 63 66 70 28 5 40 2 57 -15 35 -35 27 -51
-24 -51 -32 0 -45 -4 -45 -14 0 -24 27 -38 62 -31 31 6 32 5 14 -10 -25 -19
-76 -20 -101 -1 -17 12 -22 12 -39 0 -33 -23 -83 -17 -113 12 l-26 26 5 -26
c5 -24 2 -26 -26 -26 -32 0 -32 0 -31 53 0 45 -2 52 -20 52 -18 0 -20 -7 -20
-52 1 -52 1 -53 -30 -53 l-30 0 0 62 c0 46 4 65 15 70 23 10 40 9 40 -2z m468
-327 c2 -116 5 -142 18 -147 12 -5 14 -1 9 15 -11 35 18 66 70 73 43 7 46 9
43 34 -2 21 -9 28 -30 30 -23 3 -28 -1 -28 -17 0 -14 -6 -21 -20 -21 -15 0
-20 7 -20 25 0 19 7 26 38 34 104 29 137 5 134 -99 -2 -56 1 -70 12 -70 8 0
17 -4 20 -9 4 -5 -70 -9 -176 -9 -152 -1 -180 1 -165 12 15 11 17 31 17 145 0
118 -2 131 -17 132 -12 1 -10 4 7 9 14 5 39 8 55 7 l30 -2 3 -142z m1332 6 c0
-123 2 -144 18 -155 14 -12 -8 -13 -148 -13 -97 1 -170 5 -177 11 -18 14 -16
53 2 72 8 8 36 18 61 22 41 6 45 9 42 33 -2 20 -9 27 -30 29 -20 2 -28 -1 -28
-13 0 -21 -30 -31 -41 -14 -16 26 -9 38 29 48 53 15 94 13 120 -5 19 -13 22
-24 22 -89 0 -75 6 -87 43 -77 15 4 17 19 17 134 0 126 -1 130 -22 136 -23 6
-23 6 2 13 14 4 40 7 58 8 l32 1 0 -141z m-2238 80 c-3 -31 -8 -39 -21 -37 -9
2 -17 15 -19 31 -3 21 -9 27 -28 27 l-24 0 0 -125 0 -125 25 0 c14 0 25 -4 25
-10 0 -6 -37 -10 -90 -10 -53 0 -90 4 -90 10 0 6 11 10 25 10 l25 0 0 125 0
125 -24 0 c-19 0 -25 -6 -28 -27 -2 -17 -10 -29 -20 -31 -15 -3 -18 4 -18 37
l0 41 133 0 133 0 -4 -41z m1397 17 c5 -27 -26 -48 -50 -35 -19 10 -25 39 -12
53 14 14 58 1 62 -18z m-159 -36 c0 -37 2 -40 28 -41 l27 -1 -28 -11 c-27 -11
-28 -13 -25 -82 l3 -70 43 -3 42 -3 0 80 c0 70 -2 81 -17 82 -26 1 25 17 60
18 l27 1 0 -90 c0 -73 3 -90 15 -90 8 0 15 -4 15 -9 0 -11 -196 -19 -232 -11
-21 5 -23 12 -26 87 -3 78 -4 82 -30 92 l-27 9 28 1 c22 1 30 8 43 41 11 27
22 40 35 40 15 0 19 -7 19 -40z m-1163 -49 c5 -19 5 -19 24 0 21 21 36 23 58
10 18 -11 4 -54 -15 -47 -8 3 -25 1 -39 -4 -22 -9 -25 -15 -25 -65 0 -52 1
-55 25 -55 14 0 25 -4 25 -10 0 -6 -32 -10 -77 -10 -67 1 -76 3 -60 14 13 11
17 29 17 90 0 65 -2 76 -17 77 -15 0 -15 2 2 9 37 16 76 12 82 -9z m265 1 c11
-11 16 -49 17 -119 1 -39 3 -43 26 -43 25 0 25 1 25 80 0 66 -3 80 -16 80 -8
0 -12 5 -9 10 10 16 95 13 95 -4 0 -13 4 -13 28 0 35 18 62 18 90 -2 19 -13
22 -24 22 -88 0 -56 4 -75 15 -80 11 -4 15 2 15 24 0 37 22 40 38 5 15 -32 72
-37 72 -6 0 13 -15 25 -49 39 -57 23 -71 50 -47 87 19 30 53 40 102 30 33 -6
35 -8 29 -33 -4 -15 -8 -29 -10 -30 -7 -7 -25 9 -25 23 0 16 -35 29 -50 20
-21 -13 -8 -31 43 -55 60 -29 74 -63 38 -99 -18 -18 -33 -20 -148 -20 -108 0
-125 2 -110 13 13 10 17 28 17 73 0 67 -12 86 -47 72 -21 -7 -23 -15 -23 -74
0 -51 3 -65 15 -65 8 0 15 -5 15 -10 0 -7 -58 -10 -160 -9 -127 1 -163 4 -175
16 -39 38 15 93 91 93 27 0 27 0 14 34 -12 33 -60 38 -60 6 0 -13 -7 -20 -20
-20 -15 0 -20 7 -20 25 0 19 7 27 33 34 38 12 114 8 129 -7z m1283 -8 c47 -31
49 -109 4 -149 -25 -23 -110 -31 -149 -15 -54 22 -76 93 -44 139 36 51 131 63
189 25z m125 12 c0 -11 8 -11 44 2 40 15 45 15 70 -1 24 -16 26 -23 26 -92 0
-60 3 -75 15 -75 8 0 15 -4 15 -10 0 -6 -27 -10 -60 -10 -33 0 -60 4 -60 10 0
6 5 10 10 10 6 0 10 30 10 69 0 71 -10 88 -45 75 -20 -8 -22 -140 -2 -147 28
-10 -5 -18 -64 -14 -49 2 -58 5 -41 12 22 7 23 11 19 84 -6 91 -4 81 -23 81
-8 0 -12 5 -9 10 10 16 95 13 95 -4z m-940 -370 c0 -87 4 -147 10 -151 6 -3
19 -3 30 0 18 6 20 15 20 81 0 59 -3 74 -15 74 -8 0 -15 4 -15 9 0 9 88 20 96
12 2 -2 4 -42 4 -87 0 -66 3 -85 16 -92 11 -6 -21 -11 -97 -14 -63 -3 -117 -1
-120 4 -3 5 -18 4 -34 -2 -53 -20 -120 15 -125 65 -10 96 46 149 130 125 l30
-9 0 50 c0 42 -3 49 -19 49 -11 0 -22 4 -26 9 -3 6 17 12 47 14 29 2 56 4 61
5 4 1 7 -63 7 -142z m-709 92 c7 -18 27 -64 45 -103 l33 -70 47 103 47 102 49
0 c26 0 48 -4 48 -10 0 -5 -7 -10 -15 -10 -13 0 -15 -20 -15 -121 0 -104 3
-124 18 -135 15 -11 6 -13 -63 -13 -65 0 -76 2 -57 11 20 10 22 18 21 92 l-1
81 -25 -55 c-14 -30 -34 -74 -44 -97 -10 -25 -25 -43 -34 -43 -9 0 -24 18 -34
43 -11 23 -30 67 -44 97 l-26 55 0 -82 c-1 -66 2 -83 13 -83 8 0 18 -4 21 -10
4 -6 -16 -10 -52 -10 -49 1 -55 3 -42 13 13 10 19 39 24 135 7 109 6 122 -9
122 -9 0 -16 5 -16 10 0 6 22 10 49 10 45 0 49 -2 62 -32z m827 20 c18 -18 15
-36 -7 -48 -23 -12 -47 -5 -55 17 -13 33 36 57 62 31z m337 -17 c0 -32 -28
-49 -49 -32 -19 16 -21 47 -3 55 28 11 52 1 52 -23z m-763 -72 c38 -10 76 -58
63 -79 -3 -6 -36 -10 -72 -10 l-65 0 6 -27 c4 -16 15 -34 24 -41 15 -12 27
-12 82 0 8 2 17 -1 18 -7 6 -16 -75 -38 -112 -31 -102 19 -117 150 -22 192 38
16 33 16 78 3z m660 -12 c8 -13 -5 -50 -19 -54 -6 -2 -13 5 -16 16 -2 10 -14
24 -25 30 -55 29 -93 -90 -41 -132 21 -17 41 -18 86 -5 6 2 12 -1 13 -7 3 -16
-71 -37 -110 -30 -41 7 -62 21 -78 52 -30 55 0 124 61 142 37 12 119 4 129
-12z m108 -66 c0 -81 2 -90 20 -96 33 -11 40 3 40 81 0 62 -3 76 -17 82 -13 4
-4 9 27 13 32 5 48 3 54 -6 8 -10 16 -10 43 1 39 17 79 9 93 -16 6 -10 10 -48
10 -84 0 -51 4 -67 18 -75 13 -8 0 -10 -52 -11 -59 0 -67 2 -52 13 14 10 16
25 14 77 -3 65 -3 65 -33 65 -30 0 -30 0 -33 -64 -2 -51 0 -66 15 -77 15 -11
-1 -13 -117 -13 -96 0 -130 3 -117 10 14 8 17 24 17 83 0 61 -3 75 -17 82 -13
6 -6 10 27 14 25 4 48 8 53 8 4 1 7 -38 7 -87z m432 79 c39 -11 58 -34 58 -69
0 -19 -6 -21 -65 -21 -58 0 -65 -2 -65 -20 0 -11 9 -29 21 -41 21 -21 45 -22
93 -3 14 5 17 3 14 -7 -2 -8 -24 -20 -48 -28 -63 -20 -118 -1 -144 52 -16 34
-17 42 -5 74 9 23 27 42 49 54 40 22 43 22 92 9z m788 -555 l0 -275 -1490 0
-1490 0 0 275 0 275 1490 0 1490 0 0 -275z"/>
<path d="M800 1475 c0 -8 9 -15 20 -15 13 0 18 5 14 15 -4 8 -12 15 -20 15 -8
0 -14 -7 -14 -15z"/>
<path d="M1257 1484 c-13 -13 -7 -24 14 -24 11 0 19 5 17 12 -5 14 -22 21 -31
12z"/>
<path d="M1528 1089 c-28 -16 -23 -49 7 -49 21 0 25 5 25 30 0 32 -5 35 -32
19z"/>
<path d="M2505 1086 c-25 -18 -13 -46 20 -46 21 0 25 5 25 30 0 33 -15 38 -45
16z"/>
<path d="M758 1089 c-21 -12 -24 -45 -5 -52 21 -8 40 9 44 37 4 28 -9 33 -39
15z"/>
<path d="M2026 1174 c-17 -16 -21 -38 -17 -89 4 -39 18 -55 47 -55 42 0 60 92
28 138 -18 26 -37 28 -58 6z"/>
<path d="M1176 808 c-25 -35 -21 -94 7 -112 12 -9 32 -13 45 -9 20 5 22 12 22
68 0 57 -2 63 -22 69 -34 9 -35 8 -52 -16z"/>
<path d="M947 811 c-6 -25 0 -31 30 -31 20 0 24 5 21 23 -4 29 -43 36 -51 8z"/>
<path d="M2150 821 c-17 -32 -12 -43 17 -39 34 4 42 32 14 47 -16 9 -22 8 -31
-8z"/>
<path d="M1641 318 l0 -163 45 120 c47 124 60 151 49 100 -5 -23 -4 -27 4 -15
9 12 10 8 5 -15 -4 -16 -11 -40 -15 -53 -14 -36 -9 -41 6 -7 11 24 14 26 15
10 l1 -20 9 20 c5 11 9 27 9 35 0 9 -4 8 -9 -5 -6 -13 -9 -15 -9 -5 0 8 4 22
9 30 9 13 10 13 10 0 0 -13 1 -13 11 0 8 12 9 11 5 -5 -3 -11 -10 -44 -16 -72
-5 -29 -16 -66 -25 -82 -8 -17 -15 -32 -15 -36 0 -3 36 -5 80 -5 44 0 80 2 80
4 0 11 -93 273 -106 297 -14 27 -18 29 -79 29 l-65 0 1 -162z"/>
<path d="M1880 418 c15 -35 42 -103 59 -153 18 -49 34 -91 36 -94 3 -2 5 66 5
152 l0 157 -64 0 -65 0 29 -62z"/>
<path d="M2100 283 c-23 -65 -48 -121 -54 -125 -6 -4 1 -8 16 -8 19 0 26 4 22
14 -3 7 2 30 10 50 13 31 19 36 49 36 33 0 36 -3 53 -50 15 -42 22 -50 43 -50
22 0 23 1 8 18 -8 9 -32 62 -53 117 -20 55 -40 104 -44 108 -4 4 -26 -45 -50
-110z m59 26 c16 -46 14 -49 -20 -49 -24 0 -30 3 -25 16 3 9 9 27 12 40 8 33
20 30 33 -7z"/>
<path d="M2336 298 c-21 -57 -44 -113 -52 -125 -14 -22 -13 -23 10 -23 18 0
24 4 20 14 -3 7 2 30 10 50 14 33 19 36 50 34 33 -2 37 -6 53 -50 14 -39 21
-48 41 -48 20 0 21 2 9 14 -7 8 -31 61 -52 118 -21 56 -41 107 -45 111 -4 4
-24 -39 -44 -95z m48 18 c3 -13 9 -31 12 -40 5 -13 -1 -16 -26 -16 -25 0 -31
3 -26 16 3 9 9 27 12 40 8 31 20 31 28 0z"/>
<path d="M2595 383 c-4 -10 -22 -60 -41 -112 -19 -52 -39 -100 -45 -108 -9
-10 -6 -13 14 -13 18 0 25 4 21 14 -3 7 2 30 10 50 12 30 20 36 44 36 34 0 45
-11 61 -62 11 -32 17 -38 39 -37 15 0 22 3 15 5 -6 3 -33 59 -58 125 -26 65
-48 119 -50 119 -1 0 -6 -8 -10 -17z m14 -55 c25 -67 25 -68 -9 -68 -27 0 -31
3 -25 18 3 9 9 29 12 45 7 33 11 34 22 5z"/>
<path d="M2770 380 c-31 -31 -24 -55 30 -115 55 -61 54 -59 40 -86 -15 -27
-64 -25 -85 4 l-16 22 3 -25 c3 -22 8 -25 50 -28 39 -3 49 1 62 20 28 39 20
66 -34 118 -27 27 -50 54 -50 62 0 20 21 38 45 38 12 0 26 -5 33 -12 9 -9 12
-8 12 5 0 25 -64 23 -90 -3z"/>
<path d="M1716 324 c-4 -14 -5 -28 -3 -31 3 -2 8 8 11 23 4 14 5 28 3 31 -3 2
-8 -8 -11 -23z"/>
<path d="M1732 233 c-15 -48 -10 -52 11 -8 9 19 13 36 8 39 -4 3 -13 -11 -19
-31z"/>
</g>
</svg>
